<svg xmlns="http://www.w3.org/2000/svg" width="256" height="256" viewBox="0 0 256 256"><path fill="#646cff" d="M256 128A128 128 0 1 1 0 128a128 128 0 0 1 256 0Z"/><path fill="#fff" d="M150.39 63.342c-4.232 0-6.23 2.523-7.924 4.815l-29.61 45.17H112.7v50.25h20.59v-30.866l22.65 30.865h16.92l-24.3-33.15c8.95-3.326 13.91-10.97 13.91-20.08 0-13.43-8.95-22.004-22.07-22.004Zm-2.4 7.37c6.12 0 9.8 4.38 9.8 10.05 0 6.12-3.68 10.3-9.8 10.3h-10.54l5.27-20.35ZM85.23 163.582V96.9h-10.2v-6.3h28.17v6.3h-10.2v66.68Z"/></svg>